<svg xmlns="http://www.w3.org/2000/svg" width="243.64000000000001" height="35" viewBox="0 0 243.64000000000001 35"><rect class="svg__rect" x="0" y="0" width="133.43" height="35" fill="#000000"/><rect class="svg__rect" x="131.43" y="0" width="112.21000000000001" height="35" fill="#31424D"/><path class="svg__text" d="M15.78 22L14.31 22L14.31 13.47L15.78 13.47L15.78 22ZM22.07 22L20.59 22L20.59 13.47L22.07 13.47L25.89 19.54L25.89 13.47L27.36 13.47L27.36 22L25.88 22L22.07 15.95L22.07 22ZM31.67 19.42L31.67 19.42L33.15 19.42Q33.15 20.15 33.63 20.55Q34.11 20.95 35.01 20.95L35.01 20.95Q35.78 20.95 36.17 20.63Q36.56 20.32 36.56 19.80L36.56 19.80Q36.56 19.24 36.16 18.94Q35.77 18.63 34.74 18.32Q33.71 18.01 33.10 17.63L33.10 17.63Q31.93 16.90 31.93 15.72L31.93 15.72Q31.93 14.69 32.77 14.02Q33.61 13.35 34.95 13.35L34.95 13.35Q35.84 13.35 36.54 13.68Q37.24 14.01 37.64 14.61Q38.04 15.22 38.04 15.96L38.04 15.96L36.56 15.96Q36.56 15.29 36.14 14.91Q35.72 14.54 34.94 14.54L34.94 14.54Q34.22 14.54 33.81 14.85Q33.41 15.16 33.41 15.71L33.41 15.71Q33.41 16.18 33.85 16.50Q34.28 16.81 35.28 17.10Q36.27 17.40 36.88 17.78Q37.48 18.16 37.76 18.65Q38.04 19.13 38.04 19.79L38.04 19.79Q38.04 20.86 37.22 21.49Q36.41 22.12 35.01 22.12L35.01 22.12Q34.08 22.12 33.30 21.77Q32.53 21.43 32.10 20.83Q31.67 20.22 31.67 19.42ZM43.89 22L42.42 22L42.42 13.47L43.89 13.47L43.89 22ZM50.19 22L48.71 22L48.71 13.47L51.97 13.47Q53.40 13.47 54.24 14.21Q55.08 14.96 55.08 16.18L55.08 16.18Q55.08 17.44 54.26 18.13Q53.43 18.83 51.95 18.83L51.95 18.83L50.19 18.83L50.19 22ZM50.19 14.66L50.19 17.64L51.97 17.64Q52.76 17.64 53.18 17.27Q53.59 16.90 53.59 16.19L53.59 16.19Q53.59 15.50 53.17 15.09Q52.75 14.68 52.01 14.66L52.01 14.66L50.19 14.66ZM60.93 22L59.45 22L59.45 13.47L60.93 13.47L60.93 22ZM67.22 22L65.74 22L65.74 13.47L68.74 13.47Q70.22 13.47 71.02 14.13Q71.82 14.79 71.82 16.05L71.82 16.05Q71.82 16.90 71.41 17.48Q70.99 18.06 70.26 18.37L70.26 18.37L72.17 21.92L72.17 22L70.58 22L68.87 18.71L67.22 18.71L67.22 22ZM67.22 14.66L67.22 17.52L68.74 17.52Q69.49 17.52 69.92 17.15Q70.34 16.77 70.34 16.11L70.34 16.11Q70.34 15.43 69.95 15.05Q69.56 14.68 68.79 14.66L68.79 14.66L67.22 14.66ZM81.79 22L76.22 22L76.22 13.47L81.75 13.47L81.75 14.66L77.70 14.66L77.70 17.02L81.20 17.02L81.20 18.19L77.70 18.19L77.70 20.82L81.79 20.82L81.79 22ZM88.44 22L85.99 22L85.99 13.47L88.51 13.47Q89.64 13.47 90.52 13.97Q91.39 14.48 91.87 15.40Q92.35 16.33 92.35 17.52L92.35 17.52L92.35 17.95Q92.35 19.16 91.87 20.08Q91.39 21.00 90.49 21.50Q89.60 22 88.44 22L88.44 22ZM87.47 14.66L87.47 20.82L88.44 20.82Q89.60 20.82 90.23 20.09Q90.85 19.36 90.86 17.99L90.86 17.99L90.86 17.52Q90.86 16.13 90.26 15.40Q89.66 14.66 88.51 14.66L88.51 14.66L87.47 14.66ZM105.90 22L102.79 22L102.79 13.47L105.72 13.47Q107.16 13.47 107.92 14.05Q108.68 14.63 108.68 15.78L108.68 15.78Q108.68 16.36 108.36 16.83Q108.04 17.30 107.43 17.56L107.43 17.56Q108.13 17.75 108.50 18.26Q108.88 18.78 108.88 19.51L108.88 19.51Q108.88 20.71 108.11 21.36Q107.34 22 105.90 22L105.90 22ZM104.28 18.15L104.28 20.82L105.92 20.82Q106.62 20.82 107.01 20.47Q107.40 20.13 107.40 19.51L107.40 19.51Q107.40 18.18 106.05 18.15L106.05 18.15L104.28 18.15ZM104.28 14.66L104.28 17.06L105.73 17.06Q106.42 17.06 106.81 16.75Q107.20 16.43 107.20 15.86L107.20 15.86Q107.20 15.23 106.84 14.95Q106.48 14.66 105.72 14.66L105.72 14.66L104.28 14.66ZM115.39 18.86L112.53 13.47L114.17 13.47L116.14 17.51L118.10 13.47L119.74 13.47L116.88 18.86L116.88 22L115.39 22L115.39 18.86Z" fill="#FFFFFF"/><path class="svg__text" d="M148.00 22L145.62 22L145.62 13.60L148.00 13.60L148.00 22ZM152.74 17.80L152.74 17.80Q152.74 16.54 153.34 15.54Q153.94 14.55 154.99 13.99Q156.04 13.43 157.36 13.43L157.36 13.43Q158.51 13.43 159.44 13.84Q160.36 14.25 160.98 15.02L160.98 15.02L159.46 16.39Q158.65 15.40 157.48 15.40L157.48 15.40Q156.80 15.40 156.26 15.70Q155.73 16 155.44 16.54Q155.14 17.09 155.14 17.80L155.14 17.80Q155.14 18.51 155.44 19.05Q155.73 19.60 156.26 19.90Q156.80 20.20 157.48 20.20L157.48 20.20Q158.65 20.20 159.46 19.22L159.46 19.22L160.98 20.58Q160.37 21.35 159.44 21.76Q158.51 22.17 157.36 22.17L157.36 22.17Q156.04 22.17 154.99 21.61Q153.94 21.05 153.34 20.05Q152.74 19.06 152.74 17.80ZM167.89 22L165.51 22L165.51 13.60L167.89 13.60L167.89 16.76L171.13 16.76L171.13 13.60L173.50 13.60L173.50 22L171.13 22L171.13 18.72L167.89 18.72L167.89 22ZM181.04 22L178.66 22L178.66 13.60L181.04 13.60L181.04 22ZM188.60 22L186.22 22L186.22 13.60L190.06 13.60Q191.20 13.60 192.04 13.98Q192.88 14.35 193.34 15.06Q193.79 15.76 193.79 16.71L193.79 16.71Q193.79 17.62 193.37 18.30Q192.94 18.98 192.15 19.36L192.15 19.36L193.96 22L191.41 22L189.89 19.77L188.60 19.77L188.60 22ZM188.60 15.47L188.60 17.93L189.91 17.93Q190.65 17.93 191.02 17.61Q191.39 17.29 191.39 16.71L191.39 16.71Q191.39 16.12 191.02 15.79Q190.65 15.47 189.91 15.47L189.91 15.47L188.60 15.47ZM200.00 22L197.57 22L201.28 13.60L203.63 13.60L207.34 22L204.87 22L204.21 20.37L200.66 20.37L200.00 22ZM202.44 15.93L201.35 18.61L203.51 18.61L202.44 15.93ZM213.85 22L211.49 22L211.49 13.60L213.85 13.60L213.85 17.09L217.10 13.60L219.72 13.60L216.29 17.32L219.90 22L217.14 22L214.74 18.95L213.85 19.90L213.85 22ZM223.93 18.26L223.93 18.26L223.93 13.60L226.31 13.60L226.31 18.19Q226.31 20.20 227.91 20.20L227.91 20.20Q229.49 20.20 229.49 18.19L229.49 18.19L229.49 13.60L231.83 13.60L231.83 18.26Q231.83 20.13 230.79 21.15Q229.75 22.17 227.88 22.17L227.88 22.17Q226.01 22.17 224.97 21.15Q223.93 20.13 223.93 18.26Z" fill="#FFFFFF" x="144.43"/></svg>